<svg preserveAspectRatio="none" width="100%" height="100%" overflow="visible" style="display: block;" viewBox="0 0 18.3692 21.5" fill="none" xmlns="http://www.w3.org/2000/svg">
<path id="Icon" d="M16.75 8.25V5.55C16.75 3.86984 16.75 3.02976 16.423 2.38803C16.1354 1.82354 15.6765 1.3646 15.112 1.07698C14.4702 0.75 13.6302 0.75 11.95 0.75H5.55C3.86984 0.75 3.02976 0.75 2.38803 1.07698C1.82354 1.3646 1.3646 1.82354 1.07698 2.38803C0.75 3.02976 0.75 3.86984 0.75 5.55V15.95C0.75 17.6302 0.75 18.4702 1.07698 19.112C1.3646 19.6765 1.82354 20.1354 2.38803 20.423C3.02976 20.75 3.86984 20.75 5.55 20.75H10.75M10.75 9.75H4.75M6.75 13.75H4.75M12.75 5.75H4.75M13.25 13.7522C13.4262 13.2514 13.774 12.829 14.2317 12.56C14.6895 12.2909 15.2277 12.1926 15.751 12.2824C16.2743 12.3721 16.749 12.6442 17.0909 13.0504C17.4329 13.4566 17.62 13.9707 17.6192 14.5017C17.6192 16.0006 15.3709 16.75 15.3709 16.75M15.3999 19.75H15.4099" stroke="var(--stroke-0, #A4A7AE)" stroke-width="1.5" stroke-linecap="round" stroke-linejoin="round"/>
</svg>
