<svg preserveAspectRatio="none" width="100%" height="100%" overflow="visible" style="display: block;" viewBox="0 0 90 90" fill="none" xmlns="http://www.w3.org/2000/svg">
<g id="vuesax/linear/archive">
<path id="Vector" d="M33.75 82.5H56.25C75 82.5 82.5 75 82.5 56.25V33.75C82.5 15 75 7.5 56.25 7.5H33.75C15 7.5 7.5 15 7.5 33.75V56.25C7.5 75 15 82.5 33.75 82.5Z" stroke="var(--stroke-0, #A4A7AE)" stroke-width="3" stroke-linecap="round" stroke-linejoin="round"/>
<g id="Group">
<path id="Vector_2" d="M67.5 29.0625V54.375C67.5 50.25 64.125 46.875 60 46.875H30C25.875 46.875 22.5 50.25 22.5 54.375V29.0625C22.5 24.9375 25.875 21.5625 30 21.5625H60C64.125 21.5625 67.5 24.9375 67.5 29.0625Z" stroke="var(--stroke-0, #A4A7AE)" stroke-width="3" stroke-linecap="round" stroke-linejoin="round"/>
<path id="Vector_3" d="M71.25 59.0625H67.5" stroke="var(--stroke-0, #A4A7AE)" stroke-width="3" stroke-linecap="round" stroke-linejoin="round"/>
<path id="Vector_4" d="M22.5 59.0625H18.75" stroke="var(--stroke-0, #A4A7AE)" stroke-width="3" stroke-linecap="round" stroke-linejoin="round"/>
</g>
<path id="Vector_5" d="M67.5 52.5V41.25C67.5 37.125 64.125 33.75 60 33.75H30C25.875 33.75 22.5 37.125 22.5 41.25V52.5" stroke="var(--stroke-0, #A4A7AE)" stroke-width="3" stroke-linecap="round" stroke-linejoin="round"/>
<path id="Vector_6" d="M67.5 54.375V59.0625H54.375C54.375 64.2375 50.175 68.4375 45 68.4375C39.825 68.4375 35.625 64.2375 35.625 59.0625H22.5V54.375C22.5 50.25 25.875 46.875 30 46.875H60C64.125 46.875 67.5 50.25 67.5 54.375Z" stroke="var(--stroke-0, #A4A7AE)" stroke-width="3" stroke-linecap="round" stroke-linejoin="round"/>
<g id="Vector_7" opacity="0">
</g>
</g>
</svg>
