<svg preserveAspectRatio="none" width="100%" height="100%" overflow="visible" style="display: block;" viewBox="0 0 17.549 21.5" fill="none" xmlns="http://www.w3.org/2000/svg">
<path id="Vector" d="M16.722 4.56691L16.0304 4.85701H16.0304L16.722 4.56691ZM16.1072 5.04011C16.2674 5.42208 16.707 5.60184 17.0889 5.44162C17.4709 5.2814 17.6507 4.84187 17.4905 4.45989L16.7988 4.75L16.1072 5.04011ZM13.5287 0.553643C13.1442 0.399807 12.7077 0.586869 12.5538 0.971457C12.4 1.35604 12.5871 1.79252 12.9717 1.94636L13.2502 1.25L13.5287 0.553643ZM13.4174 1.31689L13.1389 2.01325V2.01325L13.4174 1.31689ZM0.826995 4.56691L1.51862 4.85701V4.85701L0.826995 4.56691ZM0.0585746 4.45989C-0.101646 4.84187 0.0781179 5.2814 0.460089 5.44162C0.842061 5.60184 1.28159 5.42208 1.44182 5.04011L0.750195 4.75L0.0585746 4.45989ZM4.57738 1.94636C4.96197 1.79252 5.14903 1.35604 4.9952 0.971457C4.84136 0.586869 4.40488 0.399807 4.0203 0.553642L4.29884 1.25L4.57738 1.94636ZM4.13161 1.31689L3.85307 0.620532L3.85307 0.620532L4.13161 1.31689ZM14.9897 7.72519L14.2445 7.80977V7.80977L14.9897 7.72519ZM15.4369 11.6653L16.1821 11.5807V11.5807L15.4369 11.6653ZM2.06347 11.6653L1.31826 11.5807L1.31826 11.5807L2.06347 11.6653ZM2.51066 7.72519L3.25587 7.80977L2.51066 7.72519ZM1.19798 13.6221L0.626873 13.136H0.626873L1.19798 13.6221ZM16.3024 13.6221L15.7313 14.1083V14.1083L16.3024 13.6221ZM11.0201 3.12366H10.2701C10.2701 3.44424 10.4739 3.72938 10.7772 3.83322L11.0201 3.12366ZM6.48025 3.12366L6.72319 3.83322C7.02649 3.72938 7.23025 3.44424 7.23025 3.12366H6.48025ZM12.4525 19.0132C12.5979 18.6253 12.4013 18.1931 12.0134 18.0477C11.6255 17.9023 11.1933 18.0989 11.0479 18.4868L11.7502 18.75L12.4525 19.0132ZM6.45249 18.4868C6.30713 18.0989 5.87486 17.9023 5.48699 18.0477C5.09912 18.1931 4.90253 18.6253 5.0479 19.0132L5.75019 18.75L6.45249 18.4868ZM16.722 4.56691L16.0304 4.85701L16.1072 5.04011L16.7988 4.75L17.4905 4.45989L17.4137 4.2768L16.722 4.56691ZM13.2502 1.25L12.9717 1.94636L13.1389 2.01325L13.4174 1.31689L13.696 0.620533L13.5287 0.553643L13.2502 1.25ZM16.722 4.56691L17.4137 4.2768C16.7142 2.60927 15.3749 1.29211 13.696 0.620532L13.4174 1.31689L13.1389 2.01325C14.4447 2.53559 15.4864 3.56004 16.0304 4.85701L16.722 4.56691ZM0.826995 4.56691L0.135375 4.2768L0.0585746 4.45989L0.750195 4.75L1.44182 5.04011L1.51862 4.85701L0.826995 4.56691ZM4.29884 1.25L4.0203 0.553642L3.85307 0.620532L4.13161 1.31689L4.41016 2.01325L4.57738 1.94636L4.29884 1.25ZM0.826995 4.56691L1.51862 4.85701C2.06264 3.56004 3.10431 2.53559 4.41016 2.01325L4.13161 1.31689L3.85307 0.620532C2.17412 1.29211 0.834834 2.60927 0.135375 4.2768L0.826995 4.56691ZM14.5274 16.75V16H2.97301V16.75V17.5H14.5274V16.75ZM14.9897 7.72519L14.2445 7.80977L14.6917 11.7498L15.4369 11.6653L16.1821 11.5807L15.7349 7.64061L14.9897 7.72519ZM2.06347 11.6653L2.80869 11.7498L3.25587 7.80977L2.51066 7.72519L1.76544 7.64061L1.31826 11.5807L2.06347 11.6653ZM1.19798 13.6221L1.76909 14.1083C2.3464 13.4301 2.71048 12.6152 2.80869 11.7498L2.06347 11.6653L1.31826 11.5807C1.25539 12.1346 1.02087 12.6731 0.626873 13.136L1.19798 13.6221ZM15.4369 11.6653L14.6917 11.7498C14.7899 12.6152 15.154 13.4301 15.7313 14.1083L16.3024 13.6221L16.8735 13.136C16.4795 12.6731 16.245 12.1346 16.1821 11.5807L15.4369 11.6653ZM2.97301 16.75V16C2.31797 16 1.85462 15.676 1.64075 15.2992C1.43429 14.9354 1.43733 14.498 1.76909 14.1083L1.19798 13.6221L0.626873 13.136C-0.138399 14.035 -0.162032 15.1616 0.33618 16.0395C0.826989 16.9044 1.79967 17.5 2.97301 17.5V16.75ZM14.5274 16.75V17.5C15.7007 17.5 16.6734 16.9044 17.1642 16.0395C17.6624 15.1616 17.6388 14.035 16.8735 13.136L16.3024 13.6221L15.7313 14.1083C16.0631 14.498 16.0661 14.9354 15.8596 15.2992C15.6458 15.676 15.1824 16 14.5274 16V16.75ZM11.0201 3.12366H11.7701V3.01995H11.0201H10.2701V3.12366H11.0201ZM14.9897 7.72519L15.7349 7.64061C15.4557 5.18026 13.6308 3.22476 11.2631 2.4141L11.0201 3.12366L10.7772 3.83322C12.6943 4.48962 14.0415 6.02101 14.2445 7.80977L14.9897 7.72519ZM6.48025 3.12366H7.23025V3.01995H6.48025H5.73025V3.12366H6.48025ZM2.51066 7.72519L3.25587 7.80977C3.45889 6.02101 4.80607 4.48962 6.72319 3.83322L6.48025 3.12366L6.2373 2.4141C3.86964 3.22476 2.04469 5.18026 1.76544 7.64061L2.51066 7.72519ZM8.7502 0.75V1.5C9.58964 1.5 10.2701 2.1805 10.2701 3.01995H11.0201H11.7701C11.7701 1.35208 10.4181 0 8.7502 0V0.75ZM8.7502 0.75V0C7.08233 0 5.73025 1.35208 5.73025 3.01995H6.48025H7.23025C7.23025 2.1805 7.91075 1.5 8.7502 1.5V0.75ZM11.7502 18.75L11.0479 18.4868C10.7252 19.3479 9.83478 20 8.75019 20V20.75V21.5C10.4357 21.5 11.9018 20.4825 12.4525 19.0132L11.7502 18.75ZM8.75019 20.75V20C7.66561 20 6.77521 19.3479 6.45249 18.4868L5.75019 18.75L5.0479 19.0132C5.59855 20.4825 7.06472 21.5 8.75019 21.5V20.75Z" fill="var(--stroke-0, #181D27)"/>
</svg>
