<svg preserveAspectRatio="none" width="100%" height="100%" overflow="visible" style="display: block;" viewBox="0 0 23.5 19.5" fill="none" xmlns="http://www.w3.org/2000/svg">
<path id="Icon" d="M16.75 18.75V16.75C16.75 15.6891 16.3286 14.6717 15.5784 13.9216C14.8283 13.1714 13.8109 12.75 12.75 12.75H4.75C3.68913 12.75 2.67172 13.1714 1.92157 13.9216C1.17143 14.6717 0.75 15.6891 0.75 16.75V18.75M22.75 18.75V16.75C22.7493 15.8637 22.4544 15.0028 21.9114 14.3023C21.3684 13.6019 20.6081 13.1016 19.75 12.88M15.75 0.88C16.6104 1.1003 17.373 1.6007 17.9176 2.30231C18.4622 3.00392 18.7578 3.86683 18.7578 4.755C18.7578 5.64317 18.4622 6.50608 17.9176 7.20769C17.373 7.9093 16.6104 8.4097 15.75 8.63M12.75 4.75C12.75 6.95914 10.9591 8.75 8.75 8.75C6.54086 8.75 4.75 6.95914 4.75 4.75C4.75 2.54086 6.54086 0.75 8.75 0.75C10.9591 0.75 12.75 2.54086 12.75 4.75Z" stroke="var(--stroke-0, #A4A7AE)" stroke-width="1.5" stroke-linecap="round" stroke-linejoin="round"/>
</svg>
