<svg preserveAspectRatio="none" width="100%" height="100%" overflow="visible" style="display: block;" viewBox="0 0 8.50017 8.80548" fill="none" xmlns="http://www.w3.org/2000/svg">
<path id="Icon" d="M2.63592 5.38881C2.82094 6.10765 3.47348 6.63881 4.25008 6.63881C5.02668 6.63881 5.67923 6.10765 5.86424 5.38881M3.84079 0.707147L1.01483 2.90512C0.825926 3.05204 0.731475 3.1255 0.663429 3.2175C0.603153 3.299 0.558251 3.39081 0.530929 3.48842C0.500084 3.59861 0.500084 3.71827 0.500084 3.95759V6.97214C0.500084 7.43885 0.500084 7.67221 0.590912 7.85047C0.670807 8.00727 0.79829 8.13475 0.955092 8.21465C1.13335 8.30547 1.36671 8.30547 1.83342 8.30547H6.66675C7.13346 8.30547 7.36682 8.30547 7.54508 8.21465C7.70188 8.13475 7.82936 8.00727 7.90926 7.85047C8.00008 7.67221 8.00008 7.43885 8.00008 6.97214V3.95759C8.00008 3.71827 8.00008 3.59861 7.96924 3.48842C7.94192 3.39081 7.89702 3.299 7.83674 3.2175C7.76869 3.1255 7.67424 3.05204 7.48534 2.90512L4.65938 0.707147C4.51299 0.593292 4.4398 0.536364 4.35898 0.514481C4.28767 0.495173 4.2125 0.495173 4.14119 0.514481C4.06037 0.536364 3.98718 0.593292 3.84079 0.707147Z" stroke="var(--stroke-0, #A4A7AE)" stroke-linecap="round" stroke-linejoin="round"/>
</svg>
