<svg preserveAspectRatio="none" width="100%" height="100%" overflow="visible" style="display: block;" viewBox="0 0 16.5003 16.4965" fill="none" xmlns="http://www.w3.org/2000/svg">
<path id="Icon" d="M15.1578 11.1675C14.6807 12.2959 13.9344 13.2902 12.9842 14.0635C12.034 14.8368 10.9089 15.3656 9.70713 15.6036C8.50538 15.8416 7.26362 15.7816 6.09041 15.4288C4.9172 15.0761 3.84827 14.4413 2.97707 13.58C2.10586 12.7187 1.45891 11.6571 1.09278 10.488C0.726644 9.31886 0.652474 8.07787 0.876751 6.87348C1.10103 5.66909 1.61692 4.53797 2.37934 3.57902C3.14175 2.62007 4.12746 1.86249 5.2503 1.3725M15.7503 8.25C15.7503 7.26509 15.5563 6.28982 15.1794 5.37987C14.8025 4.46993 14.25 3.64314 13.5536 2.9467C12.8572 2.25026 12.0304 1.69781 11.1204 1.3209C10.2105 0.943993 9.23522 0.75 8.2503 0.75V8.25H15.7503Z" stroke="var(--stroke-0, #A4A7AE)" stroke-width="1.5" stroke-linecap="round" stroke-linejoin="round"/>
</svg>
